<svg width="11" height="31" viewBox="0 0 11 31" fill="none" xmlns="http://www.w3.org/2000/svg">
<path d="M10.1595 25.6901C10.0544 25.585 9.8836 25.585 9.77852 25.6901L5.38832 30.0802V0.269427C5.38832 0.120703 5.26761 0 5.11889 0C4.97016 0 4.84945 0.120703 4.84945 0.269427V30.0802L0.459793 25.6907C0.354713 25.5856 0.18389 25.5856 0.0788101 25.6907C-0.02627 25.7957 -0.02627 25.9666 0.0788101 26.0716L4.92812 30.9208C4.95291 30.9456 4.98309 30.9655 5.01596 30.9795C5.04883 30.993 5.08386 31 5.11889 31C5.15391 31 5.18894 30.993 5.22181 30.9795C5.25522 30.9661 5.28486 30.9461 5.30965 30.9208L10.159 26.0716C10.2646 25.966 10.2646 25.7957 10.1595 25.6901Z" fill="#333333"/>
</svg>
