<svg width="16" height="19" viewBox="0 0 16 19" fill="none" xmlns="http://www.w3.org/2000/svg">
<mask id="path-1-inside-1" fill="white">
<path fill-rule="evenodd" clip-rule="evenodd" d="M9.68794 3.18658C9.70614 3.08162 9.71562 2.97374 9.71562 2.86368C9.71562 1.80932 8.84566 0.95459 7.77252 0.95459C6.69937 0.95459 5.82942 1.80932 5.82942 2.86368C5.82942 2.97367 5.83889 3.08149 5.85706 3.18639C3.57843 3.97868 1.94298 6.14521 1.94298 8.69372V15.3354C0.83039 15.5885 0 16.5838 0 17.7731V18.1367H15.5448V17.7731C15.5448 16.5837 14.7142 15.5883 13.6015 15.3353V8.69372C13.6015 6.14542 11.9663 3.97904 9.68794 3.18658Z"/>
</mask>
<path d="M9.68794 3.18658L8.70264 3.01574L8.5576 3.85219L9.35942 4.13108L9.68794 3.18658ZM5.85706 3.18639L6.18548 4.13092L6.98732 3.85212L6.84238 3.01565L5.85706 3.18639ZM1.94298 15.3354L2.16486 16.3104L2.94298 16.1334V15.3354H1.94298ZM0 18.1367H-1V19.1367H0V18.1367ZM15.5448 18.1367V19.1367H16.5448V18.1367H15.5448ZM13.6015 15.3353H12.6015V16.1334L13.3797 16.3104L13.6015 15.3353ZM10.6732 3.35743C10.7012 3.1963 10.7156 3.03127 10.7156 2.86368H8.71562C8.71562 2.91621 8.7111 2.96694 8.70264 3.01574L10.6732 3.35743ZM10.7156 2.86368C10.7156 1.24046 9.38123 -0.0454102 7.77252 -0.0454102V1.95459C8.3101 1.95459 8.71562 2.37818 8.71562 2.86368H10.7156ZM7.77252 -0.0454102C6.16381 -0.0454102 4.82942 1.24046 4.82942 2.86368H6.82942C6.82942 2.37818 7.23494 1.95459 7.77252 1.95459V-0.0454102ZM4.82942 2.86368C4.82942 3.03116 4.84384 3.1961 4.87175 3.35713L6.84238 3.01565C6.83393 2.96687 6.82942 2.91618 6.82942 2.86368H4.82942ZM5.52864 2.24186C2.8604 3.16962 0.942982 5.70645 0.942982 8.69372H2.94298C2.94298 6.58396 4.29646 4.78774 6.18548 4.13092L5.52864 2.24186ZM0.942982 8.69372V15.3354H2.94298V8.69372H0.942982ZM1.72111 14.3603C0.163333 14.7148 -1 16.1069 -1 17.7731H1C1 17.0608 1.49745 16.4623 2.16486 16.3104L1.72111 14.3603ZM-1 17.7731V18.1367H1V17.7731H-1ZM0 19.1367H15.5448V17.1367H0V19.1367ZM16.5448 18.1367V17.7731H14.5448V18.1367H16.5448ZM16.5448 17.7731C16.5448 16.1067 15.3812 14.7145 13.8232 14.3602L13.3797 16.3104C14.0472 16.4622 14.5448 17.0607 14.5448 17.7731H16.5448ZM14.6015 15.3353V8.69372H12.6015V15.3353H14.6015ZM14.6015 8.69372C14.6015 5.7067 12.6844 3.17003 10.0165 2.24208L9.35942 4.13108C11.2482 4.78804 12.6015 6.58413 12.6015 8.69372H14.6015Z" fill="#61697D" mask="url(#path-1-inside-1)"/>
</svg>
