<svg width="19" height="19" viewBox="0 0 19 19" fill="none" xmlns="http://www.w3.org/2000/svg">
<path d="M7.52506 11.0251C7.04243 11.1713 6.5304 11.25 6 11.25C3.1005 11.25 0.75 8.89949 0.75 6C0.75 5.18949 0.933666 4.42188 1.26165 3.73652L5.08103 7.5559L7.5559 5.08103L3.73652 1.26165C4.42188 0.933666 5.18949 0.75 6 0.75C8.89949 0.75 11.25 3.10051 11.25 6C11.25 6.77036 11.0841 7.50196 10.786 8.16102L17.0126 14.3876C17.696 15.071 17.696 16.1791 17.0126 16.8625L16.425 17.4501C15.7416 18.1335 14.6335 18.1335 13.9501 17.4501L7.52506 11.0251Z" stroke="white" stroke-linecap="square"/>
</svg>
