<?xml version="1.0" encoding="iso-8859-1"?>
<!-- Generator: Adobe Illustrator 19.0.0, SVG Export Plug-In . SVG Version: 6.00 Build 0)  -->
<svg version="1.1" id="Capa_1" xmlns="http://www.w3.org/2000/svg" xmlns:xlink="http://www.w3.org/1999/xlink" x="0px" y="0px"
	 viewBox="0 0 480 480" style="enable-background:new 0 0 480 480;" xml:space="preserve">
<g>
	<g>
		<path d="M472,0H8C3.582,0,0,3.582,0,8v400c0,4.418,3.582,8,8,8h192v48h-40v16h160v-16h-40v-48h192c4.418,0,8-3.582,8-8V8
			C480,3.582,476.418,0,472,0z M264,464h-48v-48h48V464z M464,400H16V16h448V400z"/>
	</g>
</g>
<g>
	<g>
		<path d="M448,24H32c-4.418,0-8,3.582-8,8v352c0,4.418,3.582,8,8,8h416c4.418,0,8-3.582,8-8V32C456,27.582,452.418,24,448,24z
			 M440,376H40V40h400V376z"/>
	</g>
</g>
<g>
	<g>
		<path d="M72,344V64H56v288c0,4.418,3.582,8,8,8h352v-16H72z"/>
	</g>
</g>
<g>
	<g>
		<path d="M144,240h-32c-4.418,0-8,3.582-8,8v80c0,4.418,3.582,8,8,8h32c4.418,0,8-3.582,8-8v-80C152,243.582,148.418,240,144,240z
			 M136,320h-16v-64h16V320z"/>
	</g>
</g>
<g>
	<g>
		<path d="M224,192h-32c-4.418,0-8,3.582-8,8v128c0,4.418,3.582,8,8,8h32c4.418,0,8-3.582,8-8V200C232,195.582,228.418,192,224,192z
			 M216,320h-16V208h16V320z"/>
	</g>
</g>
<g>
	<g>
		<path d="M304,160h-32c-4.418,0-8,3.582-8,8v160c0,4.418,3.582,8,8,8h32c4.418,0,8-3.582,8-8V168C312,163.582,308.418,160,304,160z
			 M296,320h-16V176h16V320z"/>
	</g>
</g>
<g>
	<g>
		<path d="M384,128h-32c-4.418,0-8,3.582-8,8v192c0,4.418,3.582,8,8,8h32c4.418,0,8-3.582,8-8V136C392,131.582,388.418,128,384,128z
			 M376,320h-16V144h16V320z"/>
	</g>
</g>
<g>
	<g>
		<path d="M320.364,56.07c-0.121-0.002-0.243-0.002-0.364,0.002V56h-48v16h28.688L216,156.688V120
			c-0.001-4.418-3.583-7.999-8.002-7.998c-2.121,0-4.154,0.843-5.654,2.342l-80,80l11.312,11.312L200,139.312V176
			c0.001,4.418,3.583,7.999,8.002,7.998c2.121,0,4.154-0.843,5.654-2.342L312,83.312V112h16V64
			C328.081,59.702,324.663,56.152,320.364,56.07z"/>
	</g>
</g>
<g>
</g>
<g>
</g>
<g>
</g>
<g>
</g>
<g>
</g>
<g>
</g>
<g>
</g>
<g>
</g>
<g>
</g>
<g>
</g>
<g>
</g>
<g>
</g>
<g>
</g>
<g>
</g>
<g>
</g>
</svg>
