<svg width="14" height="14" viewBox="0 0 14 14" fill="none" xmlns="http://www.w3.org/2000/svg">
<path d="M11.48 14H2.52C1.12 14 0 12.88 0 11.48V2.52C0 1.12 1.12 0 2.52 0H11.48C12.88 0 14 1.12 14 2.52V11.48C14 12.88 12.88 14 11.48 14ZM7 4.76C5.768 4.76 4.76 5.768 4.76 7C4.76 8.232 5.768 9.24 7 9.24C8.232 9.24 9.24 8.232 9.24 7C9.24 5.768 8.232 4.76 7 4.76ZM12.32 1.68H10.08V3.92H12.32V1.68ZM12.6 5.6H10.668C10.836 6.048 10.92 6.496 10.92 7C10.92 9.156 9.156 10.92 7 10.92C4.844 10.92 3.08 9.156 3.08 7C3.08 6.496 3.164 6.048 3.332 5.6H1.4V10.64C1.4 11.732 2.268 12.6 3.36 12.6H10.64C11.732 12.6 12.6 11.732 12.6 10.64V5.6Z" fill="white"/>
</svg>
