<svg width="17" height="14" viewBox="0 0 17 14" fill="none" xmlns="http://www.w3.org/2000/svg">
<path d="M15.3 2.38998L17 2.04855C17 2.04855 15.572 3.65326 15.3 3.75568C15.266 4.54096 15.3 4.77996 15.3 4.77996C12.036 18.8467 0 12.6328 0 12.6328C4.386 12.7352 4.76 10.9256 4.76 10.9256C2.21 10.5501 1.7 8.87707 1.7 8.87707C2.584 9.28678 3.06 8.53564 3.06 8.53564C0.306 7.81865 0.68 5.12139 0.68 5.12139C1.156 5.5311 1.904 5.70181 2.346 5.7701C2.04 5.39453 -0.544 2.28755 1.02 0.682851C1.02 0.682851 2.924 4.09711 7.922 4.40439L8.262 4.33611C8.194 4.09711 8.194 3.85811 8.194 3.58497C8.194 1.6047 9.792 0 11.764 0C14.144 0 14.654 1.3657 14.654 1.3657L16.354 0.341426C16.32 0.341426 16.15 2.04855 15.3 2.38998Z" fill="white"/>
</svg>
