<svg width="9" height="5" viewBox="0 0 9 5" fill="none" xmlns="http://www.w3.org/2000/svg">
<path d="M8.20111 1.36938L4.76724 4.76323C4.69283 4.83826 4.6043 4.8978 4.50676 4.93844C4.40922 4.97908 4.3046 5 4.19893 5C4.09326 5 3.98864 4.97908 3.8911 4.93844C3.79356 4.8978 3.70503 4.83826 3.63062 4.76323L0.236768 1.36938C0.161744 1.29497 0.102196 1.20644 0.0615589 1.1089C0.0209218 1.01136 0 0.906738 0 0.801071C0 0.695404 0.0209218 0.590782 0.0615589 0.493242C0.102196 0.395701 0.161744 0.307172 0.236768 0.232761C0.38674 0.0836792 0.589612 0 0.801076 0C1.01254 0 1.21541 0.0836792 1.36538 0.232761L4.19893 3.06631L7.03247 0.232761C7.18156 0.0848851 7.38279 0.00151873 7.59278 0.00063467C7.69812 2.52724e-05 7.80255 0.020216 7.90007 0.0600495C7.9976 0.0998831 8.0863 0.158576 8.16109 0.232761C8.23879 0.304494 8.30151 0.390914 8.34562 0.487027C8.38973 0.58314 8.41436 0.687041 8.41808 0.792727C8.4218 0.898413 8.40454 1.00379 8.3673 1.10277C8.33006 1.20174 8.27358 1.29236 8.20111 1.36938Z" fill="#B2B8C7"/>
</svg>
