<svg xmlns="http://www.w3.org/2000/svg" height="20" viewBox="0 0 480 480" width="20" style="fill:#ffffff;"><path d="M240 0a240 240 0 100 480 240 240 0 000-480zm8.6 69.2L332 35.8c9.5 4.3 18.6 9.3 27.4 14.8l.2.2c8.7 5.4 17 11.5 24.7 18l.7.6c3.5 3 7 6.1 10.2 9.3l1.3 1.2c3.5 3.4 6.8 7 10 10.5l.9 1c2.8 3.1 5.6 6.5 8.2 9.8l2 2.4 8.3 11.5-16.7 70.7-81.8 27.3-78.8-63zM62.4 103.7a175.4 175.4 0 0110.1-12.2l.9-1c3.2-3.6 6.6-7.1 10-10.5l1.3-1.2c3.2-3.1 6.6-6.2 10-9.2l.9-.6c7.7-6.6 16-12.6 24.5-18l.3-.2c8.7-5.6 17.8-10.5 27.2-14.8l83.8 33.2V150l-78.8 63-81.8-27.2L54 115.1c2.7-3.9 5.5-7.7 8.3-11.4zm-9.6 259c-2.4-3.5-4.6-7.2-6.7-10.9l-.6-.9c-2.1-3.7-4.1-7.5-6-11.3v-.1A220.5 220.5 0 0125 302.4l-.5-1.5-3-11.8-.2-1.1c-2-9-3.4-18-4.2-27.1l48.8-58.6 81.3 27 23.6 94.4-38.8 51.6zm240.5 94.8c-4 1-8.1 1.9-12.2 2.7l-1.8.3-10.5 1.6c-1 0-2 .2-2.9.3l-10 1-3 .2a209.4 209.4 0 01-24.7 0h-1.4l-10.4-.8-.4-.1a228 228 0 01-22.6-3.6l-47.3-74 38.2-51h111.4l38.8 51.3zM458.8 288l-.3 1.1c-.9 4-1.9 7.9-3 11.8l-.4 1.5c-1.2 4.1-2.5 8.2-4 12.2v.1c-3 8.5-6.4 16.7-10.5 24.8v.1l-6 11.3-.6 1-6.7 10.9-79 12.4-39-51.5 23.6-94.3 81.3-27.1 48.8 58.6c-.9 9.1-2.3 18.2-4.2 27.1zm0 0" data-original="#000000" class="active-path" data-old_color="#000000"/></svg>
