<svg width="20" height="21" viewBox="0 0 20 21" fill="none" xmlns="http://www.w3.org/2000/svg">
<path fill-rule="evenodd" clip-rule="evenodd" d="M5.61047 1.02069V0.270691H4.11047V1.02069V2.32593H2.75C1.23122 2.32593 0 3.55714 0 5.07593V6.43639V7.93639V17.5178C0 19.0366 1.23121 20.2678 2.75 20.2678H17.2471C18.7659 20.2678 19.9971 19.0366 19.9971 17.5178V7.93639V6.43639V5.07593C19.9971 3.55714 18.7659 2.32593 17.2471 2.32593H15.8866V1.02069V0.270691H14.3866V1.02069V2.32593H5.61047V1.02069ZM5.61047 3.82593H14.3866H15.8866L17.2471 3.82593C17.9375 3.82593 18.4971 4.38557 18.4971 5.07593V6.43639H1.5V5.07593C1.5 4.38557 2.05964 3.82593 2.75 3.82593L4.11047 3.82593H5.61047ZM1.5 17.5178V7.93639H18.4971V17.5178C18.4971 18.2082 17.9375 18.7678 17.2471 18.7678H2.75C2.05964 18.7678 1.5 18.2082 1.5 17.5178ZM13.0814 12.3521H12.0814V13.3521V15.4073V16.4073H13.0814H15.1366H16.1366V15.4073V13.3521V12.3521H15.1366H13.0814ZM14.0814 14.4073V14.3521H14.1366V14.4073H14.0814Z" fill="#333645"/>
</svg>
