<svg width="24" height="24" viewBox="0 0 24 24" fill="none" xmlns="http://www.w3.org/2000/svg">
<path d="M12 0C5.39406 0 0 5.39406 0 12C0 18.6059 5.39406 24 12 24C18.6059 24 24 18.6059 24 12C24 5.39406 18.6059 0 12 0ZM12 1.42574C17.8218 1.42574 22.5743 6.17822 22.5743 12C22.5743 17.8218 17.8218 22.5743 12 22.5743C6.17822 22.5743 1.42574 17.8218 1.42574 12C1.42574 6.17822 6.17822 1.42574 12 1.42574ZM12 4.15842C11.596 4.15842 11.2871 4.46733 11.2871 4.87129V10.7645C10.8594 11.0022 10.5743 11.4772 10.5743 12C10.5743 12.7842 11.2158 13.4257 12 13.4257C12.5228 13.4257 12.9978 13.1406 13.2355 12.7129H16.7525C17.1564 12.7129 17.4653 12.404 17.4653 12C17.4653 11.596 17.1564 11.2871 16.7525 11.2871H13.2355C13.1166 11.0733 12.9267 10.8834 12.7129 10.7645V4.87129C12.7129 4.46733 12.404 4.15842 12 4.15842Z" fill="#61697D"/>
</svg>
