<?xml version="1.0" encoding="iso-8859-1"?>
<!-- Generator: Adobe Illustrator 19.0.0, SVG Export Plug-In . SVG Version: 6.00 Build 0)  -->
<svg version="1.1" id="Capa_1" xmlns="http://www.w3.org/2000/svg" xmlns:xlink="http://www.w3.org/1999/xlink" x="0px" y="0px"
	 viewBox="0 0 480 480" style="enable-background:new 0 0 480 480;" xml:space="preserve">
<path style="fill:#60A65F;" d="M480,320L240,480L0,320l104-49.6c41.6-20,88-30.4,134.4-30.4h3.2c46.4,0,92,10.4,134.4,30.4L480,320z
	"/>
<path style="fill:#FFFFFF;" d="M400.8,372.8l-29.6-26.4c-35.2-32-81.6-49.6-128.8-49.6h-5.6c-48,0-93.6,17.6-128.8,49.6l-29.6,26.4
	L64.8,364l32-29.6c38.4-35.2,88-54.4,140-54.4h5.6c52,0,101.6,19.2,140,54.4l32,29.6L400.8,372.8z"/>
<g>
	<polyline style="fill:#F53855;" points="240,48 160,152 240,192 	"/>
	<polyline style="fill:#F53855;" points="248,48 288,120 240,144 	"/>
</g>
<polygon style="fill:#193441;" points="248,474.4 240,480 232,474.4 232,40 248,40 "/>
<circle style="fill:#324D5C;" cx="240" cy="24" r="24"/>
<g>
</g>
<g>
</g>
<g>
</g>
<g>
</g>
<g>
</g>
<g>
</g>
<g>
</g>
<g>
</g>
<g>
</g>
<g>
</g>
<g>
</g>
<g>
</g>
<g>
</g>
<g>
</g>
<g>
</g>
</svg>
