<svg width="24" height="23" viewBox="0 0 24 23" fill="none" xmlns="http://www.w3.org/2000/svg">
<path fill-rule="evenodd" clip-rule="evenodd" d="M18.1549 22.1142C17.9706 22.1142 17.7851 22.071 17.6148 21.9823L11.6659 18.8743L5.71828 21.9823C5.32394 22.1865 4.84794 22.1515 4.49094 21.8902C4.13161 21.6288 3.95311 21.1867 4.02894 20.7492L5.16178 14.1832L0.355109 9.534C0.035442 9.22483 -0.080058 8.7605 0.056442 8.33583C0.192942 7.9135 0.558109 7.60433 0.999109 7.54133L7.64911 6.57533L10.6218 0.595C11.0161 -0.198333 12.3169 -0.198333 12.7113 0.595L15.6839 6.57533L22.3339 7.54133C22.7749 7.60433 23.1401 7.9135 23.2766 8.33583C23.4131 8.7605 23.2976 9.22483 22.9779 9.534L18.1713 14.1832L19.3041 20.7492C19.3799 21.1867 19.2003 21.6288 18.8421 21.8902C18.6391 22.0395 18.3976 22.1142 18.1549 22.1142Z" fill="#F6C100"/>
</svg>
