<svg width="25" height="24" viewBox="0 0 25 24" fill="none" xmlns="http://www.w3.org/2000/svg">
<path fill-rule="evenodd" clip-rule="evenodd" d="M19.1549 23.1142C18.9706 23.1142 18.7851 23.071 18.6148 22.9823L12.6659 19.8743L6.71828 22.9823C6.32394 23.1865 5.84794 23.1515 5.49094 22.8902C5.13161 22.6288 4.95311 22.1867 5.02894 21.7492L6.16178 15.1832L1.35511 10.534C1.03544 10.2248 0.919942 9.7605 1.05644 9.33583C1.19294 8.9135 1.55811 8.60433 1.99911 8.54133L8.64911 7.57533L11.6218 1.595C12.0161 0.801667 13.3169 0.801667 13.7113 1.595L16.6839 7.57533L23.3339 8.54133C23.7749 8.60433 24.1401 8.9135 24.2766 9.33583C24.4131 9.7605 24.2976 10.2248 23.9779 10.534L19.1713 15.1832L20.3041 21.7492C20.3799 22.1867 20.2003 22.6288 19.8421 22.8902C19.6391 23.0395 19.3976 23.1142 19.1549 23.1142Z" stroke="#61697D"/>
</svg>
