<svg width="21" height="21" viewBox="0 0 21 21" fill="none" xmlns="http://www.w3.org/2000/svg">
<path d="M9.10425 20.25C9.00339 20.25 8.90176 20.2259 8.8093 20.1758C8.6059 20.0675 8.47925 19.8549 8.47925 19.625V11.6083C8.47925 11.3167 8.35672 11.0366 8.14172 10.8401L1.45181 4.71243C1.15091 4.43579 0.979248 4.0441 0.979248 3.63745V1.70828C0.979248 0.904144 1.63339 0.25 2.43753 0.25H19.521C20.3251 0.25 20.9792 0.904144 20.9792 1.70828V3.63745C20.9792 4.0441 20.8076 4.43579 20.5076 4.71243L13.8185 10.8408C13.6018 11.0366 13.4792 11.3167 13.4792 11.6083V16.6784C13.4792 17.1667 13.2368 17.6208 12.8301 17.8916L9.45093 20.1441C9.34671 20.2151 9.22586 20.25 9.10425 20.25ZM2.43753 1.5C2.32263 1.5 2.22925 1.59338 2.22925 1.70828V3.63745C2.22925 3.69589 2.25427 3.75174 2.29761 3.79172L8.98508 9.91827C9.45764 10.3516 9.72925 10.9675 9.72925 11.6083V18.4566L12.1368 16.8517C12.1943 16.8133 12.2292 16.7483 12.2292 16.6784V11.6083C12.2292 10.9667 12.5001 10.3509 12.9742 9.91827L19.6618 3.7908C19.7042 3.75174 19.7292 3.69589 19.7292 3.63745V1.70828C19.7292 1.59338 19.6359 1.5 19.521 1.5H2.43753Z" fill="#61697D"/>
</svg>
