<svg width="20" height="20" viewBox="0 0 20 20" fill="none" xmlns="http://www.w3.org/2000/svg">
<path d="M19.4938 19.9918C19.7737 19.9918 20 19.7654 20 19.4855V4.67586C20 4.52768 19.9342 4.38773 19.823 4.29306L14.9383 0.11525C14.93 0.107018 14.9218 0.102902 14.9136 0.0987858C14.9012 0.0905536 14.893 0.0823215 14.8807 0.0740893C14.8642 0.0658572 14.8519 0.057625 14.8354 0.0493929C14.823 0.0452768 14.8107 0.0370447 14.7984 0.0329286C14.7819 0.0246964 14.7613 0.0205804 14.7449 0.0164643C14.7325 0.0123482 14.7202 0.00823215 14.7078 0.00823215C14.6749 0.00411607 14.6461 0 14.6132 0H0.506173C0.226337 0 0 0.226384 0 0.506277V19.4937C0 19.7736 0.226337 20 0.506173 20H19.4938V19.9918ZM15.823 18.9833H4.17695V11.4056C4.17695 11.2533 4.30041 11.134 4.44856 11.134H15.5514C15.7037 11.134 15.823 11.2575 15.823 11.4056V18.9833ZM6.65844 1.00432H14.1029V6.26466C14.1029 6.29759 14.0782 6.32229 14.0453 6.32229H6.72016C6.68724 6.32229 6.66255 6.29348 6.66255 6.26466V1.00432H6.65844ZM1.01235 1.00432H5.65432V6.26466C5.65432 6.85326 6.13169 7.33073 6.72016 7.33073H14.0453C14.6337 7.33073 15.1111 6.85326 15.1111 6.26466V1.59292L18.9877 4.91047V18.9833H16.8313V11.4056C16.8313 10.6977 16.2551 10.1255 15.5514 10.1255H4.44856C3.74074 10.1255 3.16872 10.7018 3.16872 11.4056V18.9874H1.01235V1.00432Z" fill="black"/>
<path d="M9.35802 3.19408H11.572V4.53592C11.572 4.81581 11.7984 5.04219 12.0782 5.04219C12.358 5.04219 12.5844 4.81581 12.5844 4.53592V2.69192C12.5844 2.41202 12.358 2.18564 12.0782 2.18564H9.35802C9.07819 2.18564 8.85185 2.41202 8.85185 2.69192C8.85185 2.97181 9.0823 3.19408 9.35802 3.19408Z" fill="black"/>
<path d="M12.5309 13.2867H7.46914C7.1893 13.2867 6.96297 13.5131 6.96297 13.793C6.96297 14.0729 7.1893 14.2992 7.46914 14.2992H12.5309C12.8107 14.2992 13.037 14.0729 13.037 13.793C13.037 13.5131 12.8107 13.2867 12.5309 13.2867Z" fill="black"/>
<path d="M12.5309 15.958H7.46914C7.1893 15.958 6.96297 16.1844 6.96297 16.4643C6.96297 16.7442 7.1893 16.9706 7.46914 16.9706H12.5309C12.8107 16.9706 13.037 16.7442 13.037 16.4643C13.037 16.1844 12.8107 15.958 12.5309 15.958Z" fill="black"/>
</svg>
