<svg width="10" height="10" viewBox="0 0 10 10" fill="none" xmlns="http://www.w3.org/2000/svg">
<g clip-path="url(#clip0)">
<path d="M6.3954 3.10822L1.68782 7.81784C1.55116 7.9545 1.55116 8.17683 1.68782 8.31348C1.75513 8.38079 1.84488 8.41547 1.93462 8.41547C2.02437 8.41547 2.11411 8.38079 2.18142 8.31348L6.889 3.6059C7.02566 3.46925 7.02566 3.24692 6.889 3.11026C6.75439 2.97156 6.53206 2.97156 6.3954 3.10822Z" fill="black"/>
<path d="M8.79394 3.91391C8.88368 3.91391 8.97343 3.87923 9.04074 3.81192L9.55473 3.29792C10.1483 2.70438 10.1483 1.73961 9.55473 1.1481L8.85309 0.446451C8.56549 0.158856 8.18408 0.00180054 7.77818 0.00180054C7.37229 0.00180054 6.99087 0.160896 6.70328 0.446451L6.18929 0.96045C6.05263 1.09711 6.05263 1.31943 6.18929 1.45609L8.54714 3.81396C8.61445 3.87923 8.70419 3.91391 8.79394 3.91391ZM7.19892 0.938013C7.35393 0.782998 7.55994 0.697331 7.78022 0.697331C7.99847 0.697331 8.20651 0.782998 8.36153 0.938013L9.06317 1.63966C9.3834 1.95989 9.3834 2.48001 9.06317 2.80024L8.79394 3.06948L6.92968 1.20521L7.19892 0.938013Z" fill="black"/>
<path d="M3.32159 9.52915L8.28821 4.56253C8.42486 4.42587 8.42486 4.20355 8.28821 4.06689C8.15155 3.93023 7.92922 3.93023 7.79256 4.06689L2.91161 8.95192L0.757708 9.24156L1.04734 7.08766L5.71005 2.42495C5.84671 2.28829 5.84671 2.06597 5.71005 1.92931C5.57339 1.79265 5.35107 1.79265 5.21441 1.92931L0.470114 6.67768C0.415042 6.73275 0.380368 6.8021 0.370169 6.87757L0.00302692 9.60258C-0.0112508 9.71068 0.0254634 9.81879 0.102971 9.8963C0.168241 9.96157 0.257987 9.99828 0.349773 9.99828C0.36609 9.99828 0.380368 9.99624 0.396685 9.9942L3.1217 9.62706C3.19717 9.6189 3.26855 9.58422 3.32159 9.52915Z" fill="black"/>
</g>
<defs>
<clipPath id="clip0">
<rect width="10" height="10" fill="white"/>
</clipPath>
</defs>
</svg>
