<svg width="10" height="10" viewBox="0 0 10 10" fill="none" xmlns="http://www.w3.org/2000/svg">
<path d="M5 0C2.23858 0 0 2.23858 0 5C0 7.76142 2.23858 10 5 10C7.76142 10 10 7.76142 10 5C10 2.23858 7.76142 0 5 0ZM6.69074 5.91784C6.90418 6.13129 6.90418 6.47732 6.69074 6.69076C6.58403 6.79747 6.44416 6.85083 6.30429 6.85083C6.16442 6.85083 6.02455 6.79747 5.91784 6.69076L5 5.77292L4.08218 6.69076C3.97547 6.79747 3.8356 6.85083 3.69573 6.85083C3.55586 6.85083 3.41599 6.79747 3.30928 6.69076C3.09584 6.47734 3.09584 6.13129 3.30928 5.91784L4.22712 5L3.30928 4.08216C3.09584 3.86871 3.09584 3.52268 3.30928 3.30924C3.52272 3.0958 3.86876 3.0958 4.0822 3.30924L5.00002 4.22708L5.91784 3.30924C6.13129 3.0958 6.47732 3.0958 6.69076 3.30924C6.9042 3.52266 6.9042 3.86871 6.69076 4.08216L5.7729 5L6.69074 5.91784Z" fill="#E70909"/>
</svg>
