<svg width="10" height="10" viewBox="0 0 10 10" fill="none" xmlns="http://www.w3.org/2000/svg">
<path d="M10 5C10 7.7625 7.7625 10 5 10C2.2375 10 0 7.7625 0 5C0 2.2375 2.2375 0 5 0C7.7625 0 10 2.2375 10 5Z" fill="url(#paint0_linear)"/>
<path d="M4.08329 7.29166C3.92079 7.29166 3.94996 7.22916 3.89163 7.07499L3.41663 5.50832L6.36663 3.66666L6.71246 3.75832L6.42496 4.54166L4.08329 7.29166Z" fill="black"/>
<path d="M4.08337 7.29167C4.20837 7.29167 4.26254 7.23333 4.33337 7.16667C4.44171 7.0625 5.83337 5.70833 5.83337 5.70833L4.97921 5.5L4.18754 6L4.08337 7.25V7.29167Z" fill="black"/>
<path d="M4.16664 6.01664L6.18331 7.50414C6.41247 7.62914 6.57914 7.56664 6.63747 7.29164L7.45831 3.42498C7.54164 3.08748 7.32914 2.93748 7.10831 3.03748L2.29164 4.89581C1.96247 5.02914 1.96664 5.21248 2.23331 5.29164L3.47081 5.67914L6.33331 3.87498C6.46664 3.79164 6.59164 3.83748 6.49164 3.92914L4.16664 6.01664Z" fill="url(#paint1_linear)"/>
<defs>
<linearGradient id="paint0_linear" x1="6.46542" y1="1.58042" x2="3.96542" y2="7.41367" gradientUnits="userSpaceOnUse">
<stop stop-color="#37AEE2"/>
<stop offset="1" stop-color="#1E96C8"/>
</linearGradient>
<linearGradient id="paint1_linear" x1="5.3746" y1="5.15644" x2="6.41627" y2="6.8231" gradientUnits="userSpaceOnUse">
<stop stop-color="#EFF7FC"/>
<stop offset="1" stop-color="white"/>
</linearGradient>
</defs>
</svg>
