<svg width="16" height="21" viewBox="0 0 16 21" fill="none" xmlns="http://www.w3.org/2000/svg">
<path fill-rule="evenodd" clip-rule="evenodd" d="M8.70264 3.01622L8.5576 3.85268L9.35942 4.13157C11.2482 4.78853 12.6015 6.58462 12.6015 8.69421V15.3358V16.1339L13.3797 16.3109C13.8342 16.4142 14.2099 16.7247 14.4034 17.1372H1.14135C1.33482 16.7248 1.71044 16.4143 2.16486 16.3109L2.94298 16.1339V15.3359V8.6942C2.94298 6.58445 4.29646 4.78823 6.18548 4.13141L6.98732 3.8526L6.84238 3.01614C6.83393 2.96736 6.82942 2.91666 6.82942 2.86417C6.82942 2.37867 7.23494 1.95508 7.77252 1.95508C8.3101 1.95508 8.71562 2.37866 8.71562 2.86417C8.71562 2.9167 8.7111 2.96742 8.70264 3.01622ZM15.5448 17.7736C15.5448 17.5537 15.5164 17.3404 15.4631 17.1372C15.228 16.2415 14.5085 15.542 13.6015 15.3358V8.69421C13.6015 6.14591 11.9663 3.97952 9.68794 3.18707C9.70614 3.08211 9.71562 2.97423 9.71562 2.86417C9.71562 1.80981 8.84566 0.955078 7.77252 0.955078C6.69937 0.955078 5.82942 1.80981 5.82942 2.86417C5.82942 2.97416 5.83889 3.08197 5.85706 3.18688C3.57843 3.97917 1.94298 6.14569 1.94298 8.6942V15.3359C1.03612 15.5422 0.316752 16.2416 0.0817156 17.1372C0.0283939 17.3404 0 17.5537 0 17.7736V18.1372H1H14.5448H15.5448V17.7736ZM10.6871 18.6132C10.6871 18.6132 9.59968 20.9995 8.25826 20.9995C6.91685 20.9995 5.82942 18.6132 5.82942 18.6132H10.6871Z" fill="#61697D"/>
</svg>
