<svg width="15" height="14" viewBox="0 0 15 14" fill="none" xmlns="http://www.w3.org/2000/svg">
<path d="M6.16528 12.3306C7.70183 12.3306 9.10568 11.7615 10.168 10.8509L13.1842 13.8671C13.2791 13.962 13.3929 14 13.5256 14C13.6584 14 13.7722 13.962 13.867 13.8671C14.0567 13.6774 14.0567 13.374 13.867 13.2031L10.8509 10.168C11.7805 9.08661 12.3306 7.68293 12.3306 6.16528C12.3306 2.76963 9.56086 0 6.16528 0C2.7697 0 0 2.7697 0 6.16528C0 9.56093 2.7697 12.3306 6.16528 12.3306V12.3306ZM6.16528 0.948539C9.04877 0.948539 11.3821 3.28183 11.3821 6.16532C11.3821 9.04881 9.04877 11.3821 6.16528 11.3821C3.28179 11.3821 0.948505 9.04881 0.948505 6.16532C0.948505 3.28183 3.28179 0.948539 6.16528 0.948539Z" fill="#828282"/>
</svg>
