<svg width="19" height="19" viewBox="0 0 19 19" fill="none" xmlns="http://www.w3.org/2000/svg">
<path fill-rule="evenodd" clip-rule="evenodd" d="M7.70848 0C3.45124 0 0 3.45092 0 7.70793C0 11.9649 3.45124 15.4159 7.70848 15.4159C9.6568 15.4159 11.4363 14.6931 12.7935 13.5011L12.9614 13.669L16.9661 17.6734L17.3196 18.0269L18.0267 17.3198L17.6732 16.9663L13.6685 12.9619L13.5007 12.7941C14.6936 11.4368 15.417 9.65686 15.417 7.70793C15.417 3.45092 11.9657 0 7.70848 0ZM1 7.70793C1 4.00328 4.00345 1 7.70848 1C11.4135 1 14.417 4.00328 14.417 7.70793C14.417 11.4126 11.4135 14.4159 7.70848 14.4159C4.00345 14.4159 1 11.4126 1 7.70793Z" fill="white"/>
</svg>
