<svg width="21" height="20" viewBox="0 0 21 20" fill="none" xmlns="http://www.w3.org/2000/svg">
<g clip-path="url(#clip0)">
<path d="M10.9792 5.2191C8.34314 5.2191 6.19836 7.36388 6.19836 9.99998C6.19836 12.6361 8.34314 14.7809 10.9792 14.7809C13.6154 14.7809 15.7601 12.6361 15.7601 9.99998C15.7601 7.36388 13.6154 5.2191 10.9792 5.2191ZM10.9792 13.5856C9.00217 13.5856 7.39359 11.9771 7.39359 9.99998C7.39359 8.0229 9.00217 6.41432 10.9792 6.41432C12.9563 6.41432 14.5649 8.0229 14.5649 9.99998C14.5649 11.9771 12.9563 13.5856 10.9792 13.5856Z" fill="#61697D"/>
<path d="M20.5087 7.72278L18.9715 7.38861C18.8378 6.97937 18.6723 6.5802 18.4768 6.19568L19.3278 4.87198C19.4798 4.63547 19.4464 4.32495 19.2477 4.12628L16.853 1.73157C16.6543 1.5329 16.3438 1.49948 16.1073 1.65146L14.7836 2.50244C14.399 2.30698 13.9999 2.14142 13.5906 2.00775L13.2565 0.470581C13.1968 0.195923 12.9536 0 12.6725 0H9.28598C9.00491 0 8.76169 0.195923 8.70203 0.470581L8.36786 2.00775C7.95862 2.14142 7.55945 2.30698 7.17493 2.50244L5.85123 1.65146C5.61472 1.49948 5.3042 1.5329 5.10553 1.73157L2.71082 4.12628C2.51215 4.32495 2.47873 4.63547 2.63071 4.87198L3.48169 6.19568C3.28622 6.5802 3.12067 6.97937 2.987 7.38861L1.44983 7.72278C1.17517 7.78259 0.979248 8.02567 0.979248 8.30673V11.6933C0.979248 11.9743 1.17517 12.2174 1.44983 12.2772L2.987 12.6114C3.12067 13.0206 3.28622 13.4198 3.48169 13.8043L2.63071 15.128C2.47873 15.3645 2.51215 15.675 2.71082 15.8737L5.10553 18.2684C5.3042 18.4671 5.61472 18.5005 5.85123 18.3485L7.17493 17.4976C7.55945 17.693 7.95862 17.8586 8.36786 17.9922L8.70203 19.5294C8.76169 19.8041 9.00491 20 9.28598 20H12.6725C12.9536 20 13.1968 19.8041 13.2565 19.5294L13.5906 17.9922C13.9999 17.8586 14.399 17.693 14.7836 17.4976L16.1073 18.3485C16.3438 18.5005 16.6543 18.4673 16.853 18.2684L19.2477 15.8737C19.4464 15.675 19.4798 15.3645 19.3278 15.128L18.4768 13.8043C18.6723 13.4198 18.8378 13.0206 18.9715 12.6114L20.5087 12.2772C20.7833 12.2174 20.9792 11.9743 20.9792 11.6933V8.30673C20.9792 8.02567 20.7833 7.78259 20.5087 7.72278ZM19.784 11.2115L18.3746 11.5179C18.1581 11.5651 17.9853 11.7281 17.9258 11.9414C17.7709 12.4969 17.5482 13.0342 17.2637 13.5382C17.1548 13.7312 17.1615 13.9687 17.2814 14.1551L18.0619 15.3691L16.3485 17.0827L15.1344 16.3022C14.9479 16.1823 14.7105 16.1755 14.5176 16.2845C14.0135 16.5689 13.4762 16.7917 12.9206 16.9466C12.7073 17.0061 12.5443 17.1788 12.4972 17.3953L12.1908 18.8048H9.7677L9.4613 17.3953C9.41415 17.1788 9.25119 17.0061 9.03787 16.9466C8.4823 16.7917 7.94504 16.5689 7.44104 16.2845C7.24802 16.1755 7.01059 16.1824 6.82413 16.3022L5.61014 17.0827L3.89673 15.3691L4.67706 14.1551C4.797 13.9687 4.80386 13.7312 4.69492 13.5382C4.41049 13.0342 4.18771 12.4969 4.03268 11.9414C3.97318 11.7281 3.8006 11.5651 3.58408 11.5179L2.17447 11.2115V8.78845L3.58392 8.48206C3.80045 8.43491 3.97318 8.27194 4.03268 8.05862C4.18756 7.50305 4.41034 6.96579 4.69476 6.46179C4.80371 6.26877 4.797 6.03134 4.67706 5.84488L3.89658 4.63089L5.60999 2.91733L6.82413 3.69781C7.01059 3.81775 7.24802 3.82446 7.44089 3.71552C7.94504 3.43109 8.4823 3.20831 9.03787 3.05344C9.25119 2.99393 9.41415 2.8212 9.4613 2.60468L9.7677 1.19522H12.1908L12.4972 2.60468C12.5443 2.8212 12.7073 2.99393 12.9206 3.05344C13.4762 3.20831 14.0135 3.43109 14.5175 3.71552C14.7105 3.82446 14.9479 3.8176 15.1344 3.69781L16.3484 2.91733L18.0618 4.63089L17.2814 5.84488C17.1615 6.03134 17.1546 6.26877 17.2636 6.46179C17.5482 6.96579 17.7708 7.50305 17.9258 8.05862C17.9853 8.27194 18.1579 8.43491 18.3744 8.48206L19.784 8.78845V11.2115Z" fill="#61697D"/>
</g>
<defs>
<clipPath id="clip0">
<rect x="0.979248" width="20" height="20" fill="white"/>
</clipPath>
</defs>
</svg>
