<svg width="19" height="16" viewBox="0 0 19 16" fill="none" xmlns="http://www.w3.org/2000/svg">
<path opacity="0.6" fill-rule="evenodd" clip-rule="evenodd" d="M14.3611 4.79412C13.7167 4.79412 13.1944 5.33724 13.1944 6.00735V14.5368C13.1944 15.2069 13.7167 15.75 14.3611 15.75H17.0833C17.7277 15.75 18.25 15.2069 18.25 14.5368V6.00735C18.25 5.33724 17.7277 4.79412 17.0833 4.79412H14.3611ZM10.8611 15.75C11.5055 15.75 12.0278 15.2069 12.0278 14.5368V1.96324C12.0278 1.29312 11.5055 0.75 10.8611 0.75H8.13889C7.4945 0.75 6.97222 1.29312 6.97222 1.96324V14.5368C6.97222 15.2069 7.4945 15.75 8.13889 15.75H10.8611ZM1.91667 15.75H4.63889C5.28328 15.75 5.80556 15.2069 5.80556 14.5368V10.4926C5.80556 9.82254 5.28328 9.27941 4.63889 9.27941H1.91667C1.27228 9.27941 0.75 9.82254 0.75 10.4926V14.5368C0.75 15.2069 1.27228 15.75 1.91667 15.75Z" fill="#ffffff"/>
</svg>
