<svg width="85" height="60" viewBox="0 0 85 60" fill="none" xmlns="http://www.w3.org/2000/svg">
<rect width="85" height="60" rx="10" fill="#00ACED"/>
<path fill-rule="evenodd" clip-rule="evenodd" d="M52.7 23.9C52.15 24.7 51.4625 25.4125 50.675 25.9875C50.6875 26.1625 50.6875 26.3375 50.6875 26.5125C50.6875 31.85 46.625 38 39.2 38C36.9125 38 34.7875 37.3375 33 36.1875C33.325 36.225 33.6375 36.2375 33.975 36.2375C35.8625 36.2375 37.6 35.6 38.9875 34.5125C37.2125 34.475 35.725 33.3125 35.2125 31.7125C35.4625 31.75 35.7125 31.775 35.975 31.775C36.3375 31.775 36.7 31.725 37.0375 31.6375C35.1875 31.2625 33.8 29.6375 33.8 27.675V27.625C34.3375 27.925 34.9625 28.1125 35.625 28.1375C34.5375 27.4125 33.825 26.175 33.825 24.775C33.825 24.025 34.025 23.3375 34.375 22.7375C36.3625 25.1875 39.35 26.7875 42.7 26.9625C42.6375 26.6625 42.6 26.35 42.6 26.0375C42.6 23.8125 44.4 22 46.6375 22C47.8 22 48.85 22.4875 49.5875 23.275C50.5 23.1 51.375 22.7625 52.15 22.3C51.85 23.2375 51.2125 24.025 50.375 24.525C51.1875 24.4375 51.975 24.2125 52.7 23.9Z" fill="white"/>
</svg>
